<?xml version="1.0" standalone="no"?>
<!DOCTYPE svg PUBLIC "-//W3C//DTD SVG 20010904//EN"
 "http://www.w3.org/TR/2001/REC-SVG-20010904/DTD/svg10.dtd">
<svg version="1.0" xmlns="http://www.w3.org/2000/svg"
 width="895.000000pt" height="895.000000pt" viewBox="0 0 895.000000 895.000000"
 preserveAspectRatio="xMidYMid meet">
<metadata>
Created by potrace 1.16, written by Peter Selinger 2001-2019
</metadata>
<g transform="translate(0.000000,895.000000) scale(0.100000,-0.100000)"
fill="#000000" stroke="none">
<path d="M0 4475 l0 -4475 1160 0 c1052 0 1160 1 1160 16 0 9 6 14 13 11 6 -2
11 -10 9 -16 -1 -7 20 -11 61 -11 68 0 83 6 67 25 -6 7 -8 20 -4 29 9 22 40 4
48 -29 l6 -25 647 2 c631 3 646 3 657 23 6 11 71 93 144 184 74 90 135 173
137 185 21 122 28 163 45 241 11 50 24 119 31 155 6 36 16 68 22 72 9 6 8 8
-1 8 -7 0 -10 5 -6 11 3 6 10 34 14 63 l8 51 2 -45 2 -45 17 64 c13 52 15 82
8 169 -17 196 33 413 135 594 21 37 47 84 59 105 12 21 30 67 40 101 10 35 27
78 37 96 20 33 58 144 87 254 9 35 20 118 25 185 l9 122 83 164 83 163 2 262
c0 143 5 277 10 296 16 62 108 102 155 66 10 -7 14 -17 10 -21 -4 -5 -1 -5 6
-1 9 5 27 -7 53 -33 42 -45 50 -82 24 -117 -18 -24 -19 -35 -2 -28 8 3 18 -6
25 -21 6 -14 17 -24 24 -23 8 2 13 -8 14 -27 1 -49 3 -55 19 -49 10 4 15 0 15
-15 0 -12 6 -30 12 -41 10 -15 10 -24 2 -38 -9 -14 -8 -26 2 -51 8 -18 14 -44
14 -58 0 -15 4 -22 11 -17 12 7 3 -32 -11 -51 -4 -5 -13 -40 -20 -77 -11 -61
-15 -68 -36 -69 -57 -3 -71 -15 -79 -67 -3 -26 -18 -69 -31 -96 -14 -26 -23
-51 -20 -54 4 -3 0 -15 -7 -26 -13 -21 -14 -60 -3 -144 7 -65 17 -106 27 -112
4 -3 6 -16 2 -29 -4 -17 -8 -19 -14 -9 -6 9 -9 4 -9 -14 0 -16 5 -28 11 -28 7
0 8 -14 4 -40 -4 -26 -3 -40 4 -40 6 0 11 7 11 15 0 8 5 15 10 15 13 0 13 -27
0 -32 -12 -4 -24 -85 -24 -171 0 -42 -4 -66 -11 -63 -13 4 -7 -115 6 -128 6
-6 9 -6 9 1 0 7 14 27 30 45 17 18 30 38 30 45 0 7 5 13 10 13 6 0 10 7 10 16
0 10 5 14 16 10 10 -4 13 -2 8 6 -4 6 -1 16 7 22 8 6 31 36 52 66 75 111 122
177 137 193 29 31 41 47 36 47 -16 0 55 56 122 96 177 108 353 249 367 295 4
10 20 26 36 34 16 9 29 20 29 26 0 8 -5 7 -15 -1 -17 -14 -65 -22 -65 -12 0 4
5 14 10 22 8 12 10 12 10 -5 1 -14 7 -8 22 20 12 22 44 62 71 90 51 51 50 44
-9 -44 -17 -25 -21 -38 -13 -47 9 -11 15 -10 34 2 15 10 25 11 28 4 3 -6 4 -5
2 2 -1 7 -8 12 -14 10 -6 -1 -11 2 -11 7 0 11 49 101 66 121 7 8 10 27 7 42
-5 26 -6 26 -29 11 -30 -19 -31 -36 -1 -28 15 4 13 1 -8 -11 -16 -9 -38 -26
-47 -38 -25 -31 -22 -12 6 32 13 20 45 52 72 71 32 23 42 27 30 13 -11 -12
-16 -25 -13 -29 4 -3 8 -4 10 -2 2 2 15 19 30 37 15 19 25 37 22 42 -3 4 4 6
15 3 13 -4 22 1 26 13 3 11 15 37 26 59 12 25 15 41 9 43 -18 6 -12 20 7 18
12 -1 18 8 20 31 2 22 7 30 17 27 7 -3 18 4 24 15 7 11 21 31 34 44 35 39 57
69 74 109 21 48 51 62 57 26 1 -7 8 -24 16 -38 7 -14 12 -27 11 -28 -2 -2 0
-6 2 -9 7 -6 32 39 29 50 -1 5 2 6 7 3 11 -7 23 22 15 37 -5 9 -4 9 5 1 9 -8
9 -17 0 -37 -7 -15 -17 -27 -22 -27 -6 0 -7 -3 -3 -7 10 -10 46 -11 40 -1 -4
7 36 30 58 32 4 1 14 10 23 21 13 16 15 16 11 3 -3 -12 -1 -15 10 -11 18 7 18
-8 -1 -33 -17 -23 -19 -34 -4 -34 5 0 7 5 4 11 -4 6 2 13 14 16 12 3 21 11 21
18 0 7 9 23 20 36 17 21 19 22 20 6 0 -10 -4 -27 -10 -37 -8 -15 -6 -17 9 -13
16 4 19 1 14 -16 -4 -15 -1 -21 11 -21 9 0 16 7 16 16 0 13 3 14 14 5 11 -9
15 -8 20 4 4 11 2 14 -6 9 -7 -5 -8 -3 -4 5 5 7 11 10 14 7 3 -3 27 13 53 37
26 23 62 54 81 69 18 15 51 44 74 65 58 54 113 102 167 147 26 21 44 43 41 47
-3 5 0 9 6 9 6 0 0 10 -13 23 -31 28 -84 113 -128 202 -19 39 -37 71 -41 73
-4 2 -4 10 -1 18 3 8 1 14 -3 14 -5 0 -14 17 -21 38 -6 20 -17 51 -24 67 -11
28 -14 40 -22 83 -9 47 -19 63 -40 60 -16 -2 -22 4 -29 31 -7 24 -6 36 2 41 9
6 9 9 0 12 -9 3 -15 42 -20 119 -7 116 -13 144 -30 134 -13 -8 -41 51 -34 72
5 15 4 16 -5 3 -9 -12 -11 -10 -11 12 0 14 -3 35 -7 45 -6 17 -6 17 14 1 11
-10 25 -18 31 -18 16 0 28 -27 37 -77 4 -24 10 -43 15 -43 9 0 5 73 -9 175 -6
39 -11 74 -11 79 0 5 -18 -11 -40 -34 -33 -35 -42 -40 -55 -30 -18 15 -19 10
-3 -27 6 -15 13 -77 14 -138 1 -98 11 -268 17 -298 2 -14 -42 -22 -54 -10 -4
4 -9 38 -11 76 -1 37 -7 67 -13 67 -6 0 -5 3 1 8 17 10 13 90 -5 97 -12 5 -12
3 0 -12 12 -15 12 -16 -3 -10 -17 6 -18 -4 -18 -121 0 -102 3 -132 16 -151 15
-21 18 -21 26 -7 5 9 16 16 24 16 10 0 3 -17 -22 -55 -21 -30 -39 -53 -42 -50
-3 3 -11 -4 -19 -15 -18 -25 -30 -25 -38 -1 -5 16 -9 17 -30 7 -14 -6 -25 -15
-25 -20 0 -5 3 -6 6 -3 11 11 44 -13 44 -31 -1 -15 -2 -15 -15 2 -7 10 -19 15
-25 11 -7 -5 -1 -12 16 -21 22 -12 29 -12 36 -2 4 7 8 9 8 3 0 -5 5 -2 11 8 6
9 15 15 20 12 5 -4 6 -11 3 -17 -6 -9 8 -8 81 8 11 2 -4 -7 -34 -21 -29 -14
-62 -25 -73 -25 -11 0 -16 -4 -12 -11 4 -8 -1 -9 -16 -4 -16 5 -20 4 -15 -5 5
-9 2 -10 -13 -6 -17 6 -21 1 -27 -24 -10 -47 3 -89 33 -104 15 -7 34 -11 42
-8 12 4 13 2 3 -9 -7 -7 -13 -24 -13 -38 l0 -25 22 30 c33 44 51 60 76 68 12
4 22 14 22 22 0 8 4 12 10 9 6 -3 10 1 10 9 0 9 5 16 10 16 6 0 10 7 10 15 0
8 4 15 8 15 5 0 14 11 20 25 18 38 31 30 29 -19 -1 -30 -6 -42 -14 -39 -7 3
-26 -9 -42 -26 -16 -17 -35 -31 -43 -31 -8 0 -24 -9 -35 -19 -12 -11 -24 -17
-28 -13 -9 8 4 -67 14 -87 5 -8 11 2 15 29 4 23 11 51 17 61 9 18 11 18 34 3
25 -16 25 -16 25 20 0 34 2 36 30 34 17 -1 30 -5 30 -9 0 -4 9 -10 19 -14 21
-6 34 -31 25 -46 -3 -5 -15 2 -26 16 -21 27 -43 33 -50 13 -8 -21 11 -75 28
-82 14 -6 66 25 65 38 -3 30 1 56 8 56 7 0 8 -54 1 -70 -1 -3 -2 -13 -1 -22 1
-10 -3 -18 -8 -18 -6 0 -11 8 -11 18 0 12 -4 10 -13 -8 -7 -14 -23 -26 -35
-28 -17 -3 -23 -10 -22 -25 1 -12 2 -37 1 -55 -1 -46 -21 -30 -21 17 0 20 -12
61 -27 91 -25 51 -27 53 -37 30 -8 -17 -7 -25 2 -28 13 -4 17 -53 5 -51 -24 4
-33 -4 -38 -34 -9 -44 11 -117 31 -117 8 0 12 -4 9 -10 -3 -5 1 -10 10 -10 9
0 19 8 22 19 3 12 11 17 23 14 13 -3 18 0 17 13 -1 9 4 19 11 21 26 10 9 -24
-36 -72 -69 -72 -120 -115 -134 -115 -9 0 -8 -3 2 -10 8 -5 10 -10 4 -10 -17
0 -46 48 -33 55 5 4 16 2 23 -4 16 -13 27 -4 19 16 -4 10 0 14 13 11 13 -2 19
3 18 14 -1 10 2 16 6 13 4 -2 15 2 25 9 17 12 16 14 -15 29 -18 10 -34 17 -35
17 -2 0 -10 -17 -18 -37 -8 -21 -26 -48 -39 -59 -23 -22 -93 -50 -83 -35 2 5
-2 14 -10 21 -8 7 -13 15 -11 19 3 4 1 13 -4 21 -8 12 -13 11 -30 -7 -11 -12
-20 -26 -20 -30 0 -4 -11 -9 -25 -9 -18 -2 -25 3 -25 17 0 10 5 19 10 19 6 0
10 11 10 25 0 13 11 41 25 61 14 20 25 42 25 48 0 6 -14 -10 -30 -36 -17 -27
-30 -53 -30 -59 0 -14 -25 -39 -39 -39 -17 0 -13 21 13 72 16 32 21 50 14 54
-6 4 -17 -1 -24 -11 -13 -17 -14 -17 -21 0 -3 11 -2 20 3 22 5 2 9 19 8 38 -1
19 2 35 7 35 5 0 9 7 9 15 0 8 5 15 11 15 5 0 7 5 4 11 -4 5 1 19 11 30 10 11
12 19 6 19 -7 0 -11 3 -10 7 0 5 -7 26 -17 48 -25 54 -28 70 -9 54 17 -14 19
2 5 30 -7 13 -6 18 4 18 8 0 12 -4 10 -8 -3 -4 -1 -18 4 -31 8 -18 10 -19 12
-5 1 9 2 23 3 30 3 21 -16 57 -28 50 -6 -3 -8 -3 -4 2 4 4 2 15 -5 23 -9 13
-9 14 1 8 6 -4 12 -3 12 2 0 15 -13 22 -24 13 -8 -7 -11 3 -10 35 1 24 -3 48
-10 52 -6 4 -12 40 -12 87 -1 69 -6 90 -33 143 -35 68 -42 100 -9 37 12 -22
23 -35 25 -28 2 6 -3 26 -12 43 -12 23 -15 44 -10 78 4 26 6 74 6 107 -1 33 6
104 15 157 11 68 14 124 10 190 -4 51 -8 127 -10 168 l-4 75 13 -80 c7 -44 13
-69 14 -55 1 14 4 70 7 125 2 55 7 112 9 128 8 46 -11 30 -23 -20 l-11 -48 6
50 c10 87 11 135 2 141 -5 3 -9 14 -9 25 0 27 -18 24 -32 -6 -6 -14 -15 -25
-20 -25 -4 0 -7 -3 -7 -7 1 -5 0 -19 -1 -33 l-2 -25 -8 25 c-6 18 -9 20 -10 8
-4 -28 -5 -32 -17 -53 -6 -11 -9 -28 -8 -37 2 -10 -1 -20 -5 -23 -5 -3 -12
-27 -16 -53 -11 -80 -23 -81 -18 -2 3 63 11 88 42 148 21 40 42 69 47 65 4 -5
5 -3 1 4 -4 7 2 30 13 51 13 25 18 50 15 68 l-5 28 20 -22 19 -23 -2 33 c-1
18 4 45 11 60 11 22 10 38 -2 93 -9 36 -15 71 -14 78 3 24 -1 47 -8 46 -26 -4
-52 3 -57 17 -3 8 -2 13 3 9 5 -3 11 1 14 7 3 9 11 7 27 -7 l23 -20 -8 20 c-4
11 -13 49 -20 85 -10 56 -13 61 -20 40 -5 -14 -7 -43 -6 -65 1 -28 -1 -37 -8
-30 -12 12 -17 80 -8 110 4 11 9 36 12 55 3 19 15 49 26 65 10 17 27 42 36 57
10 16 24 28 31 28 18 0 15 27 -5 39 -16 9 -15 10 7 11 l25 1 -25 19 c-14 11
-30 24 -37 30 -7 5 -15 10 -19 10 -4 0 -13 8 -21 18 -8 9 -12 11 -8 5 4 -9 1
-11 -10 -7 -11 5 -13 10 -6 17 19 19 -29 49 -69 44 -19 -3 -29 -3 -22 0 37 14
-4 53 -57 53 -36 0 -48 15 -29 37 11 14 8 13 -15 -2 -15 -9 -32 -25 -37 -34
-7 -13 -9 -13 -10 -2 0 8 12 28 27 43 30 32 14 39 -17 8 -11 -11 -20 -15 -20
-8 0 6 22 33 49 59 56 54 80 91 63 97 -6 2 -8 11 -5 20 6 15 4 15 -10 4 -9 -8
-19 -22 -22 -33 -4 -10 -13 -19 -21 -19 -8 0 -14 -4 -14 -10 0 -5 -5 -10 -10
-10 -7 0 -7 7 0 21 9 16 9 28 -1 52 -18 43 -19 69 -2 63 7 -3 13 1 13 9 0 8
-6 15 -12 15 -9 0 -8 3 2 9 8 6 18 7 23 4 5 -3 5 3 -1 13 -7 13 -5 31 9 67 14
36 20 79 22 168 3 104 1 122 -15 139 -22 23 -24 37 -3 20 9 -7 18 -10 22 -7 9
10 -19 39 -32 33 -7 -2 -18 0 -26 5 -11 7 -11 9 3 9 11 0 20 11 24 28 3 15 7
33 10 40 4 15 -6 15 -28 -2 -11 -8 -15 -20 -11 -34 4 -16 1 -22 -12 -22 -13 0
-16 -5 -11 -22 11 -37 12 -43 2 -46 -6 -1 -11 8 -12 20 -10 107 -15 130 -29
144 -8 8 -15 25 -15 37 0 20 1 20 13 2 20 -26 39 -11 27 21 -14 35 -13 41 8
49 13 5 14 3 5 -6 -16 -16 -5 -39 14 -32 10 4 14 2 9 -5 -4 -6 4 -12 20 -14
l25 -3 -31 -32 c-20 -20 -27 -34 -20 -38 6 -4 13 -5 14 -4 24 31 66 100 66
108 0 6 -5 11 -12 11 -7 0 -5 7 5 18 9 10 18 43 21 77 3 33 8 81 12 108 4 31
3 47 -4 47 -16 0 -42 -41 -35 -54 3 -6 2 -8 -2 -3 -10 9 -45 -21 -45 -40 0 -7
-7 -13 -15 -13 -21 0 -19 6 25 90 22 41 40 82 40 90 0 9 9 26 20 38 12 12 17
22 12 22 -6 0 -12 11 -14 25 -3 13 -2 22 2 20 4 -3 10 4 13 15 4 15 1 20 -11
18 -14 -3 -17 7 -16 60 0 34 -3 62 -8 62 -4 0 -8 9 -8 20 0 12 5 17 13 14 22
-8 38 39 25 74 -11 28 -13 29 -26 14 -13 -16 -13 -16 -8 0 3 10 0 17 -6 15
-30 -6 -9 53 23 65 8 3 23 21 32 40 9 18 20 33 24 33 4 0 6 5 4 10 -2 6 -3 24
-3 40 2 28 1 29 -12 12 -8 -11 -13 -27 -11 -38 2 -10 1 -18 -3 -16 -4 1 -8 -1
-9 -6 -5 -15 -34 -67 -38 -67 -8 0 6 54 24 89 11 20 20 41 20 46 1 6 9 20 17
33 8 12 11 22 7 22 -5 0 -1 5 7 10 12 7 12 10 1 10 -9 0 -11 6 -6 18 4 9 8 30
10 45 3 28 11 42 24 42 15 0 40 33 45 59 6 33 15 48 26 41 5 -3 12 0 16 6 4 8
3 9 -4 5 -7 -4 -12 -2 -12 3 0 6 7 11 15 11 8 0 15 9 15 19 0 11 9 23 21 26
11 4 18 9 15 12 -3 4 0 13 7 21 10 13 9 14 -2 7 -10 -6 -12 -4 -7 4 5 7 15 10
23 6 13 -4 13 -3 4 9 -7 8 -8 16 -4 18 4 1 16 18 26 36 l18 32 -50 0 c-37 0
-53 -5 -60 -17 -10 -17 -10 -17 -11 0 0 16 -157 17 -3150 17 l-3150 0 0 -4475z
m1170 3785 l0 -530 -495 0 -495 0 0 530 0 530 495 0 495 0 0 -530z m5174
-4807 c4 -9 -1 -23 -11 -33 -10 -10 -25 -28 -33 -40 -8 -12 -30 -40 -47 -62
-18 -22 -33 -43 -33 -47 0 -16 -66 -76 -80 -73 -11 2 -12 1 -3 -5 9 -7 7 -20
-11 -56 -14 -26 -20 -47 -16 -47 15 0 -1 -55 -18 -64 -9 -5 -29 -22 -44 -38
-14 -15 -31 -28 -37 -28 -21 0 -11 22 25 53 42 37 55 65 43 89 -7 14 -5 16 11
13 17 -3 20 0 14 17 -4 14 -3 18 5 13 8 -4 10 1 6 17 -4 16 4 37 30 72 19 27
35 45 35 40 0 -6 -5 -15 -12 -22 -7 -7 -8 -12 -2 -12 19 0 49 40 37 48 -10 7
33 73 100 154 26 32 33 33 41 11z m-3730 -2379 c20 -19 21 -54 2 -54 -12 0
-12 -5 1 -32 11 -20 13 -33 6 -35 -7 -3 -9 -32 -7 -79 3 -56 1 -74 -8 -68 -8
5 -9 2 -3 -12 5 -10 7 -30 6 -44 -1 -14 -2 -37 -3 -52 0 -16 -7 -28 -14 -28
-9 0 -10 -8 -3 -32 12 -42 12 -41 -5 -35 -8 3 -17 -1 -20 -9 -3 -8 -2 -13 3
-10 5 3 11 -6 14 -20 4 -21 1 -25 -17 -22 -24 3 -34 41 -17 62 8 10 8 22 1 40
-7 18 -7 33 0 46 7 13 7 21 -1 25 -7 5 -4 14 7 27 14 14 15 21 6 27 -15 9 -9
95 7 115 8 10 9 16 1 21 -15 9 -12 45 5 51 13 5 13 9 0 34 -13 26 -13 30 1 38
13 7 14 13 5 30 -6 11 -11 23 -11 26 0 12 29 5 44 -10z"/>
<path d="M210 8265 l0 -505 165 0 165 0 0 82 c0 57 -4 86 -15 97 -21 24 -21
81 -1 119 10 19 15 40 12 47 -3 8 -1 15 4 17 5 2 3 17 -4 33 -16 36 -36 118
-36 145 0 11 8 24 18 29 9 5 23 31 31 58 8 26 25 71 38 100 27 60 28 76 9 95
-20 21 -46 74 -46 96 0 28 35 69 66 76 17 5 36 0 59 -14 36 -22 45 -38 45 -77
0 -27 35 -93 57 -106 7 -4 13 -17 13 -27 0 -11 6 -20 13 -20 8 0 23 -10 35
-23 17 -18 22 -36 23 -87 1 -36 5 -103 11 -150 8 -79 7 -91 -17 -164 -14 -44
-28 -100 -32 -125 -3 -25 -11 -55 -18 -66 -6 -11 -15 -46 -19 -77 l-6 -58 180
0 180 0 0 505 0 505 -465 0 -465 0 0 -505z"/>
<path d="M7986 8925 c14 -14 32 -25 41 -25 24 0 12 -8 -21 -14 -21 -4 -26 -2
-23 9 3 7 -1 16 -9 19 -8 3 -13 2 -10 -3 3 -5 -10 -11 -29 -13 -24 -3 -35 0
-35 9 0 9 -11 12 -37 9 -21 -2 -69 -7 -108 -11 -38 -4 -77 -12 -85 -17 -12 -7
-10 -8 5 -4 11 2 63 7 115 10 117 7 79 -9 -47 -19 -49 -4 -105 -14 -125 -21
-26 -9 -38 -10 -38 -2 0 6 -35 -23 -79 -65 -43 -41 -95 -81 -115 -88 -20 -7
-36 -16 -36 -19 0 -4 -19 -15 -42 -26 -24 -10 -60 -32 -80 -49 -21 -16 -53
-42 -72 -58 -37 -30 -64 -76 -86 -147 -7 -25 -21 -56 -30 -70 -10 -14 -16 -38
-15 -55 1 -18 -6 -40 -19 -55 -20 -23 -20 -24 -1 -10 11 8 56 46 100 85 44 38
84 73 90 77 5 4 26 21 45 38 33 29 33 30 5 13 -51 -30 -128 -89 -168 -128 -21
-20 -41 -35 -44 -32 -2 3 26 34 63 69 38 35 81 75 97 91 16 15 33 27 38 27 6
0 7 5 4 10 -3 6 0 10 7 10 7 0 24 12 37 25 13 14 26 24 28 21 7 -7 32 18 26
27 -2 4 1 7 7 7 8 0 10 9 6 26 -6 21 -4 25 8 21 10 -4 32 10 62 39 71 70 150
116 290 169 71 26 135 53 143 59 12 9 13 8 6 -3 -6 -11 -3 -13 16 -8 70 19 75
19 57 4 -10 -8 -15 -16 -12 -20 3 -3 -4 -8 -15 -12 -12 -3 -21 -11 -21 -17 0
-5 7 -7 16 -4 9 3 25 6 35 6 11 0 18 4 14 9 -6 11 33 36 43 27 3 -4 -3 -13
-14 -21 -18 -14 -18 -14 10 -15 19 0 27 4 23 13 -3 8 3 20 13 27 11 8 17 17
14 22 -3 4 2 5 11 1 9 -3 13 -9 8 -12 -15 -9 -25 -43 -11 -35 7 5 9 2 5 -9 -4
-11 -2 -14 9 -10 7 3 14 12 14 20 0 10 6 12 21 8 15 -5 22 -2 26 14 3 11 9 18
14 15 5 -3 19 -7 31 -9 40 -8 38 -21 -3 -17 -35 4 -40 2 -37 -14 2 -11 8 -22
13 -26 6 -5 5 -8 -3 -8 -7 0 -10 -4 -7 -10 3 -5 0 -7 -8 -4 -15 5 -59 -9 -83
-28 -42 -33 -107 -98 -99 -98 5 0 0 -7 -11 -16 -19 -15 -18 -15 3 -9 12 3 24
1 28 -5 4 -6 15 -8 26 -5 11 4 19 2 19 -5 0 -6 -4 -9 -8 -6 -5 3 -22 -3 -38
-13 -16 -10 -47 -21 -69 -25 -22 -4 -44 -11 -50 -16 -9 -7 -115 -19 -115 -12
0 2 19 12 43 22 23 11 34 20 25 20 -10 0 -18 5 -18 11 0 7 9 9 21 6 30 -8 81
12 75 29 -3 9 1 14 13 14 10 0 24 7 31 16 11 13 10 16 -8 21 -23 6 -31 33 -10
33 22 0 107 43 112 57 7 16 -40 18 -50 1 -5 -7 -3 -8 6 -3 9 5 11 4 6 -3 -4
-7 -16 -12 -28 -12 -19 0 -76 -34 -90 -54 -4 -6 -4 -14 -2 -18 3 -4 -4 -8 -16
-8 -12 0 -18 -4 -15 -10 3 -5 1 -10 -4 -10 -6 0 -11 5 -11 12 0 7 -5 6 -12 -4
-7 -9 -24 -18 -38 -22 -14 -3 -40 -16 -59 -28 -19 -13 -42 -27 -51 -33 -57
-36 -79 -63 -137 -174 -33 -64 -34 -65 -29 -26 5 33 2 29 -17 -25 -40 -110
-63 -155 -101 -194 -20 -22 -36 -43 -36 -48 0 -5 -4 -7 -9 -3 -5 3 -12 -3 -15
-12 -4 -10 -22 -29 -41 -43 -19 -14 -49 -37 -67 -52 -17 -15 -46 -38 -64 -50
-33 -22 -43 -38 -26 -38 5 0 19 9 32 20 38 33 37 23 -3 -18 -28 -29 -37 -46
-37 -72 0 -26 -3 -31 -10 -20 -17 27 -20 4 -5 -33 17 -42 6 -51 -12 -10 -17
35 -16 48 3 84 8 17 14 33 11 35 -2 2 -14 -15 -27 -39 l-23 -44 23 -41 c13
-23 26 -39 29 -37 4 2 6 -11 6 -28 0 -18 5 -47 12 -65 7 -18 12 -36 11 -40 -1
-4 1 -25 5 -47 12 -68 6 -172 -11 -185 -4 -3 -20 -25 -36 -50 -16 -25 -41 -57
-55 -71 -82 -83 -108 -126 -116 -190 -5 -42 -5 -42 6 -14 7 17 20 40 30 53 10
13 16 29 13 37 -3 7 3 16 13 19 24 9 68 48 76 69 3 9 13 17 20 17 8 0 19 10
26 23 11 21 11 20 6 -7 -6 -26 -4 -28 10 -16 8 7 14 15 11 17 -7 7 20 67 49
109 14 20 25 47 25 60 0 13 4 24 9 24 12 0 22 58 27 160 3 47 9 94 14 105 4
11 11 32 14 47 3 14 9 34 12 45 5 15 4 15 -5 3 -6 -8 -11 -10 -11 -4 0 6 3 14
8 18 4 4 7 20 7 34 1 19 9 31 30 42 17 8 40 25 53 38 12 13 22 18 22 13 0 -6
8 -11 18 -11 15 -1 15 -2 -3 -17 -18 -14 -18 -15 -2 -9 10 3 21 6 23 6 2 0 2
11 -2 25 -3 14 -2 25 2 24 33 -6 74 37 74 77 0 9 4 13 9 10 5 -3 14 1 21 9 7
8 16 13 20 10 5 -3 6 5 2 17 -4 18 -2 20 16 16 14 -4 22 -2 22 7 0 11 -9 10
-47 -1 -25 -8 -54 -21 -63 -29 -9 -8 -22 -15 -28 -15 -7 0 -12 -9 -12 -19 0
-32 -17 -33 -22 -1 -2 16 3 44 12 62 36 72 41 80 53 69 8 -6 20 -5 36 3 15 9
20 16 12 20 -13 8 -15 26 -3 26 4 0 13 -13 19 -30 6 -16 18 -30 27 -30 10 0
13 6 9 18 -3 9 -3 14 2 10 17 -16 160 104 152 126 -3 7 2 21 10 31 15 19 15
19 8 -2 -4 -14 -2 -23 4 -23 6 0 11 7 11 15 0 8 5 15 10 15 6 0 10 7 10 15 0
8 6 15 13 15 8 0 33 18 58 40 24 22 47 40 52 40 4 0 7 7 7 15 0 8 5 15 10 15
6 0 10 -5 10 -10 0 -9 35 5 50 20 6 6 37 24 108 63 29 16 50 32 48 36 -5 8 3
10 49 14 14 1 25 8 25 15 0 7 4 10 10 7 5 -3 21 1 34 10 14 9 31 13 37 9 9 -5
10 -2 6 10 -4 10 -3 15 3 11 6 -3 13 1 16 9 10 26 20 10 17 -26 -4 -46 6 -98
18 -98 7 0 9 20 4 59 -6 53 -5 60 12 63 12 2 22 -5 30 -24 13 -31 33 -37 33
-10 1 19 30 63 30 44 0 -7 5 -12 11 -12 6 0 17 -7 26 -15 21 -21 34 -9 21 20
-13 28 -5 55 16 55 12 0 15 -12 13 -52 -2 -62 20 -80 26 -21 3 33 5 35 12 16
4 -13 11 -23 16 -23 5 0 9 10 9 23 0 18 2 19 10 7 8 -13 10 -12 10 5 0 15 3
16 12 7 16 -16 28 -15 28 3 0 8 5 15 12 15 6 0 8 -3 5 -6 -4 -4 5 -20 18 -36
14 -16 25 -36 25 -44 0 -8 7 -14 15 -14 11 0 15 8 13 26 -2 15 3 29 10 31 7 3
12 -5 12 -22 0 -21 4 -26 22 -23 15 2 23 -2 23 -12 0 -24 42 -24 57 -1 17 27
26 26 30 -1 2 -17 11 -24 31 -26 l28 -3 -2 135 c-1 97 -4 134 -12 129 -15 -9
-46 -34 -68 -55 -10 -10 -25 -15 -32 -12 -8 3 -21 -1 -28 -8 -17 -16 -49 -22
-49 -9 0 5 -11 4 -25 -2 -17 -9 -23 -17 -19 -30 5 -16 3 -17 -14 -8 -11 6 -28
8 -36 5 -9 -3 -16 -1 -16 5 0 6 6 11 13 12 6 0 0 5 -16 11 -15 5 -25 14 -21
19 3 5 -2 9 -10 9 -8 0 -16 -6 -19 -12 -2 -7 -3 -6 -2 3 4 26 -22 50 -65 62
-11 3 -28 22 -24 29 2 4 -5 10 -16 13 -17 5 -19 10 -9 21 6 8 16 14 22 14 6 0
8 -3 4 -6 -7 -7 17 -34 30 -34 5 0 15 -9 23 -20 8 -11 18 -20 23 -20 12 0 62
-42 64 -53 3 -18 13 -19 19 -3 7 17 34 23 34 6 0 -5 7 -7 16 -3 15 6 15 7 0
19 -16 12 -16 13 3 24 27 14 27 33 1 25 -17 -5 -20 -2 -20 20 0 14 5 35 10 45
10 18 7 19 -40 17 -55 -2 -58 -8 -32 -52 25 -42 33 -65 22 -65 -6 0 -10 8 -10
18 0 10 -11 29 -25 42 -14 13 -25 31 -25 41 0 16 -22 18 -320 19 l-320 0 26
-25z"/>
<path d="M7115 8853 c7 -24 -10 -33 -18 -10 -2 6 -4 -6 -3 -28 1 -34 -2 -40
-21 -43 -13 -2 -23 -8 -23 -13 0 -5 -6 -9 -13 -9 -7 0 -23 -10 -34 -22 -27
-30 -61 -58 -72 -58 -4 0 -13 -11 -19 -25 -6 -14 -16 -25 -22 -25 -5 0 -10 -6
-10 -13 0 -13 -42 -39 -82 -51 -10 -3 -18 -13 -18 -21 0 -9 3 -14 8 -12 4 3 7
-13 7 -34 1 -23 -3 -38 -10 -36 -5 2 -9 12 -7 21 2 10 -12 1 -32 -22 -20 -22
-36 -44 -36 -49 0 -5 -13 -22 -29 -39 -35 -36 -99 -180 -74 -165 10 5 23 24
29 43 l12 33 1 -42 c1 -23 5 -44 10 -47 14 -9 20 5 12 28 -5 11 -11 38 -15 59
-6 30 -4 37 5 31 8 -4 10 -3 5 4 -4 7 2 22 13 34 12 12 21 26 21 30 0 5 5 6
10 3 8 -5 7 -11 -1 -21 -7 -8 -7 -14 -1 -14 13 0 23 26 16 44 -3 7 2 16 10 19
9 4 13 13 10 22 -3 8 -1 15 5 15 6 0 11 -7 11 -16 0 -14 3 -14 15 -4 8 7 15 9
15 5 0 -9 -68 -94 -87 -110 -12 -10 -33 -58 -33 -76 0 -16 20 -10 38 13 9 11
24 29 33 38 23 24 30 48 16 54 -7 2 -5 5 4 5 9 1 28 12 43 26 15 14 33 25 41
25 7 0 28 26 46 58 56 98 119 223 109 217 -6 -3 -10 -3 -10 1 0 8 48 54 57 54
3 0 22 12 41 26 22 18 30 29 22 34 -7 4 -1 11 17 19 30 13 77 66 48 55 -8 -3
-15 -10 -15 -15 0 -15 -22 -10 -37 9 -13 16 -14 15 -8 -5z"/>
<path d="M7195 8201 c-16 -10 -38 -28 -49 -39 -10 -11 -31 -24 -48 -27 -16 -4
-32 -13 -34 -20 -3 -7 -20 -16 -37 -19 -36 -7 -73 -37 -101 -80 -14 -23 -16
-33 -7 -52 6 -13 16 -23 22 -22 6 2 14 -3 16 -10 3 -8 -1 -10 -11 -6 -9 3 -16
1 -16 -5 0 -16 33 -81 41 -81 5 0 20 27 35 59 15 33 30 59 34 58 3 -1 18 10
32 24 18 19 26 35 24 57 -2 24 3 33 22 42 14 6 22 13 19 16 -2 3 -29 -6 -58
-20 l-54 -26 29 25 c17 13 40 26 53 30 28 7 104 60 116 81 4 8 16 14 25 14 15
0 15 2 2 10 -20 13 -20 13 -55 -9z"/>
<path d="M6771 8002 c-8 -9 -35 -39 -60 -65 -29 -30 -39 -45 -26 -41 15 5 13
1 -7 -15 -16 -12 -28 -31 -28 -41 0 -13 -6 -17 -22 -14 -13 2 -17 2 -10 -2 6
-3 12 -10 12 -15 0 -6 -5 -7 -10 -4 -6 3 -15 -6 -21 -22 -6 -15 -18 -36 -27
-46 -16 -18 -17 -17 -28 15 -10 32 -11 32 -22 11 -13 -23 -5 -86 9 -77 5 3 9
-2 9 -10 0 -24 27 -8 34 20 4 13 11 24 16 24 6 0 10 9 10 19 0 13 6 19 20 18
15 -1 18 -6 14 -27 -4 -19 -3 -22 5 -10 10 13 11 13 11 0 0 -16 -17 -84 -27
-110 -3 -8 -7 -19 -9 -25 -18 -67 -69 -202 -92 -245 -34 -64 -51 -150 -30
-150 10 0 11 -2 0 -8 -15 -10 -9 -79 7 -95 16 -16 13 -67 -4 -101 -19 -36 -19
-52 0 -36 13 11 14 8 9 -18 -3 -16 -2 -32 4 -36 15 -9 92 71 93 96 0 22 1 22
10 3 7 -16 8 -13 6 13 -3 22 1 36 10 39 7 3 13 16 13 30 0 13 4 22 9 19 5 -3
11 1 15 9 3 9 0 15 -9 15 -21 0 -19 11 9 43 13 15 32 27 42 27 16 0 17 -2 4
-11 -12 -9 -12 -10 3 -5 10 3 23 6 28 6 6 0 8 4 4 10 -3 5 0 18 7 29 10 17 8
22 -13 40 l-24 20 27 1 c18 0 29 7 33 20 3 11 10 20 14 20 11 0 11 49 0 55 -4
3 -13 -5 -20 -17 -7 -13 -32 -42 -56 -66 -39 -39 -45 -41 -59 -27 -14 14 -11
19 9 16 4 -1 7 4 6 11 -4 22 13 118 21 118 8 0 51 85 49 97 -1 4 1 26 6 48 11
53 49 113 86 133 16 10 29 22 29 28 0 5 -9 46 -21 89 -11 43 -18 87 -16 96 3
10 1 19 -4 21 -5 2 -9 24 -10 51 -2 49 -14 58 -38 29z"/>
<path d="M6982 7734 c-1 -14 -6 -34 -12 -44 -5 -10 -10 -28 -10 -39 0 -12 -7
-21 -15 -21 -8 0 -15 -5 -15 -11 0 -14 -53 -123 -62 -127 -5 -2 -8 -8 -8 -13
0 -6 -9 -20 -20 -32 -22 -23 -23 -58 -3 -64 6 -2 14 4 17 14 3 10 15 24 26 31
18 11 20 10 20 -15 0 -22 2 -25 10 -13 5 8 10 30 10 48 0 18 6 45 14 60 8 16
16 43 18 61 2 18 9 35 15 39 6 4 13 18 15 32 4 25 4 25 13 -4 5 -19 4 -36 -4
-49 -10 -15 -10 -21 -1 -27 7 -4 9 -13 6 -19 -4 -6 -4 -16 -1 -21 14 -23 55
55 55 105 0 17 -55 135 -64 135 -1 0 -3 -11 -4 -26z"/>
<path d="M7636 7373 c4 -13 -1 -18 -18 -19 -45 -3 -90 -13 -102 -24 -7 -5 -16
-7 -19 -3 -4 3 -15 -1 -24 -9 -10 -9 -29 -19 -43 -23 -45 -12 -88 -38 -101
-62 -7 -12 -16 -20 -21 -17 -4 3 -8 -2 -8 -10 0 -9 -6 -16 -13 -16 -7 0 -20
-8 -28 -17 -24 -27 -68 -63 -77 -63 -10 0 -42 -54 -42 -71 0 -7 6 -5 15 7 8
10 15 15 15 9 0 -5 6 1 13 15 8 15 20 24 30 22 9 -2 17 1 17 6 0 6 21 13 46
17 33 5 44 10 40 21 -3 7 -2 13 2 12 17 -5 102 14 97 22 -3 4 10 10 28 13 29
4 48 8 117 22 19 4 21 3 10 -5 -11 -7 -5 -10 26 -10 22 0 45 -5 51 -11 6 -6
13 -7 17 -1 6 9 89 -7 102 -21 4 -4 15 -7 25 -7 10 0 21 -9 24 -20 6 -20 16
-24 43 -21 28 4 102 -34 102 -51 0 -10 3 -17 8 -17 19 3 26 -2 12 -11 -12 -7
-11 -9 5 -9 47 -1 55 -5 55 -26 0 -12 -6 -22 -12 -23 -7 0 -29 -2 -48 -2 -19
-1 -48 -6 -65 -10 -42 -12 -133 -23 -178 -22 -45 2 -156 -23 -170 -37 -6 -6
-23 -11 -38 -11 -15 0 -32 -6 -38 -14 -7 -8 -28 -17 -49 -21 -20 -4 -42 -15
-50 -26 -7 -10 -22 -19 -32 -19 -10 0 -22 -4 -25 -10 -3 -5 -15 -10 -26 -10
-10 0 -19 -7 -19 -15 0 -8 -4 -15 -10 -15 -21 0 -78 -66 -85 -97 -3 -18 -11
-33 -16 -33 -17 0 -9 -75 11 -105 11 -16 20 -38 20 -47 0 -11 14 -21 41 -30
26 -7 45 -20 52 -35 5 -13 14 -23 19 -23 4 0 8 -7 8 -15 0 -9 6 -18 14 -21 8
-3 12 -13 8 -26 -4 -15 -2 -19 7 -14 7 5 20 1 31 -9 10 -9 26 -16 36 -15 103
3 304 -14 314 -28 8 -11 32 -14 25 -2 -3 5 -2 10 4 10 5 0 13 -5 16 -10 4 -6
21 -8 40 -4 18 3 43 3 56 -1 20 -7 20 -8 6 -17 -25 -13 -23 -42 2 -29 10 6 21
7 25 4 3 -3 6 -1 6 5 0 15 62 16 77 1 15 -15 117 -13 142 3 16 10 25 9 46 -2
21 -11 32 -12 57 -2 17 6 35 9 39 6 5 -3 6 2 3 11 -4 10 -2 14 7 10 17 -7 72
43 63 57 -4 6 -9 5 -15 -3 -6 -10 -9 -6 -9 14 0 15 5 27 11 27 6 0 9 6 6 13
-3 7 1 21 9 32 18 25 18 60 -1 79 -23 23 -18 38 13 34 25 -3 27 0 28 32 1 47
21 83 41 76 8 -3 21 -6 29 -6 7 0 41 -27 74 -59 38 -37 67 -58 76 -54 7 3 14
0 14 -6 0 -6 -4 -11 -10 -11 -15 0 -12 -26 4 -39 31 -26 49 101 21 149 -8 14
-14 37 -15 52 0 24 -64 151 -95 188 -7 8 -15 27 -19 43 -3 15 -13 27 -21 27
-7 0 -17 9 -20 20 -3 11 -11 20 -16 20 -6 0 -8 16 -4 40 5 31 3 40 -9 40 -23
0 -28 16 -9 31 9 8 14 9 10 3 -14 -24 32 -22 58 2 25 23 34 64 14 64 -8 0 -10
12 -6 36 6 34 5 35 -12 20 -10 -9 -22 -16 -27 -16 -5 0 -1 6 8 14 13 9 15 20
10 40 -7 26 -9 27 -22 11 -12 -14 -12 -18 1 -26 11 -7 10 -9 -6 -9 -15 0 -25
10 -34 35 -7 19 -19 35 -27 35 -8 0 -33 9 -56 20 -22 11 -44 17 -49 15 -4 -3
-12 2 -17 11 -8 15 -10 15 -16 -1 -6 -16 -8 -16 -31 -1 -13 9 -42 16 -64 16
-22 0 -43 5 -46 11 -4 6 -13 8 -20 5 -7 -2 -16 2 -19 10 -3 8 0 14 7 15 7 0 1
5 -13 11 -24 10 -92 11 -173 4 -26 -2 -41 2 -48 13 -8 12 -12 13 -15 3 -3 -6
-11 -9 -17 -5 -17 11 -107 11 -107 1 0 -5 -4 -6 -10 -3 -5 3 -21 -2 -35 -11
-22 -14 -25 -15 -25 -1 0 9 -4 18 -9 21 -5 4 -7 -2 -5 -11z m1 -769 c2 -62 8
-87 33 -136 17 -33 29 -63 26 -65 -3 -3 -19 0 -37 6 -18 6 -41 11 -53 11 -24
0 -127 68 -134 88 -2 7 6 16 18 19 15 4 20 11 17 24 -3 12 0 19 10 19 9 0 13
6 9 15 -3 9 0 15 8 15 7 0 24 10 37 23 26 23 32 27 52 28 8 0 8 2 -2 6 -11 5
-11 7 0 14 8 5 14 9 14 9 0 0 1 -34 2 -76z m336 -29 c27 -18 26 -50 -2 -72 -9
-7 -13 -13 -9 -13 4 0 -3 -11 -15 -24 -21 -22 -63 -42 -80 -38 -4 1 -27 3 -50
3 -55 2 -77 14 -77 44 0 31 12 38 36 20 23 -17 87 -19 116 -4 27 15 49 71 43
111 -5 27 -4 29 4 11 6 -12 21 -29 34 -38z"/>
<path d="M6591 6503 c-26 -102 -29 -133 -12 -133 9 0 12 -3 6 -8 -11 -8 -17
-92 -6 -92 17 1 30 19 40 58 7 23 13 42 15 42 2 0 3 -28 2 -62 -1 -56 -3 -63
-24 -68 -13 -3 -22 -9 -20 -15 1 -5 8 -9 15 -7 7 2 13 -5 13 -14 0 -12 -6 -15
-25 -11 -18 3 -31 -2 -43 -18 -22 -28 -48 -36 -120 -40 -32 -1 -68 -5 -80 -9
-20 -4 -22 -3 -12 9 7 8 18 15 26 15 7 0 16 5 19 10 8 12 -25 13 -43 1 -8 -5
-15 -27 -17 -49 -1 -23 2 -39 6 -36 5 3 7 9 4 14 -3 5 -2 11 3 14 4 2 8 -15 7
-40 0 -30 4 -44 12 -44 9 0 13 13 12 38 -2 55 2 70 10 42 12 -40 2 -88 -21
-96 -14 -4 -16 -9 -9 -18 6 -7 8 -16 4 -20 -4 -4 -1 -11 7 -16 7 -5 15 -21 18
-37 2 -15 7 -32 11 -38 5 -5 12 -32 16 -60 4 -27 11 -56 17 -62 6 -7 14 -43
19 -80 10 -82 44 -231 63 -275 4 -9 5 -22 1 -28 -3 -5 -2 -10 3 -10 5 0 9 -6
9 -12 0 -7 19 -45 42 -84 22 -39 41 -78 41 -88 0 -9 4 -16 9 -16 5 0 14 -13
19 -29 6 -15 23 -42 40 -59 24 -25 31 -42 36 -96 13 -116 24 -131 24 -31 0 50
6 123 12 164 14 84 9 128 -19 192 -21 46 -61 90 -61 66 0 -23 -22 -38 -37 -25
-12 9 -14 4 -12 -30 2 -23 6 -42 9 -42 3 0 14 -13 23 -30 10 -16 15 -30 10
-30 -12 0 -44 58 -64 114 -9 27 -21 51 -27 55 -25 16 -59 112 -70 198 -11 83
-10 102 8 185 15 71 25 98 44 113 17 14 27 35 31 68 4 26 11 47 16 47 4 0 6 9
4 19 -5 26 5 62 15 56 5 -3 6 -21 3 -40 -7 -45 5 -95 18 -74 7 12 9 11 9 -3 0
-10 -4 -18 -8 -18 -10 0 -13 -17 -15 -77 -1 -52 -17 -58 -17 -6 0 20 -2 34 -5
31 -3 -3 -6 -102 -6 -219 1 -209 1 -214 23 -232 21 -18 22 -18 29 0 6 13 8 14
8 3 1 -9 4 -11 9 -5 16 24 82 -5 82 -36 0 -19 21 -30 38 -20 19 11 -3 123 -54
280 -28 86 -29 91 -9 91 9 0 12 6 8 16 -3 9 -8 12 -12 5 -4 -5 -6 34 -6 88 0
56 -5 104 -11 112 -6 8 -9 34 -6 59 3 32 7 39 12 26 3 -11 11 44 16 122 5 78
6 142 2 142 -4 0 -8 -15 -10 -32 -3 -25 -6 -17 -13 32 -7 51 -10 60 -16 40 -7
-24 -7 -24 -9 5 -1 17 -2 34 -1 39 1 5 -7 6 -19 3 -17 -4 -20 0 -20 31 0 53
-11 112 -21 112 -4 0 -13 -17 -18 -37z"/>
<path d="M8540 5693 c-15 -11 -20 -25 -20 -61 0 -26 -4 -42 -8 -35 -5 8 -15 3
-31 -18 -13 -16 -30 -29 -38 -29 -7 0 -23 -9 -35 -20 -12 -11 -28 -20 -35 -20
-8 0 -12 -9 -10 -22 2 -13 2 -17 0 -10 -7 19 -16 15 -47 -20 -24 -28 -26 -34
-13 -43 24 -17 31 -78 14 -111 -13 -26 -12 -40 4 -122 10 -52 22 -99 28 -105
5 -7 11 -21 13 -32 7 -42 133 -125 189 -125 27 0 23 25 -6 44 -25 16 -34 46
-15 46 6 0 28 -11 49 -24 21 -14 42 -22 45 -18 10 10 37 11 30 1 -5 -8 9 -13
28 -10 4 0 5 -6 2 -14 -5 -11 1 -15 20 -15 15 0 42 -7 61 -14 34 -15 35 -17
35 -70 0 -42 -5 -61 -19 -75 -22 -22 -36 -104 -26 -159 8 -49 44 -72 114 -72
44 0 51 3 51 20 0 10 -10 25 -22 31 -35 19 -48 35 -48 61 1 13 -2 37 -6 55 -4
23 -2 37 10 48 13 14 16 41 6 80 -9 36 1 45 45 45 l45 0 0 173 c-1 152 -2 170
-15 152 -28 -39 -59 -65 -78 -65 -8 0 -25 -8 -38 -19 -13 -10 -30 -16 -36 -14
-7 3 -13 0 -13 -6 0 -7 -8 -7 -26 -1 -33 13 -37 13 -28 -2 5 -9 3 -9 -9 1 -9
7 -14 18 -10 24 3 6 1 7 -6 3 -6 -4 -14 -1 -17 7 -3 8 -25 20 -49 27 -25 7
-42 16 -39 21 3 5 -2 6 -10 3 -8 -3 -19 3 -26 15 -17 32 -52 26 -84 -13 -22
-28 -32 -34 -54 -30 -15 3 -31 12 -36 21 -6 12 -10 12 -16 3 -4 -7 -11 18 -15
55 -4 44 -3 71 4 78 6 6 11 16 11 23 0 6 21 33 46 60 25 27 50 60 56 74 l10
25 19 -24 c17 -21 22 -22 30 -10 5 7 9 17 9 21 0 4 6 13 13 20 23 24 57 85 57
103 0 10 3 15 7 12 9 -10 43 44 43 68 0 18 -7 21 -45 21 -24 1 -54 -5 -65 -13z"/>
<path d="M6406 5329 c-13 -62 -17 -232 -6 -239 6 -4 13 -22 15 -41 4 -25 2
-29 -4 -14 -5 11 -7 23 -5 27 3 4 0 9 -5 12 -10 6 -27 -32 -18 -40 3 -3 -1
-29 -8 -57 -23 -89 -38 -245 -30 -310 4 -34 6 -75 6 -90 -1 -16 3 -26 8 -23 5
4 9 25 9 48 0 23 5 44 11 46 6 2 11 10 11 18 0 9 4 13 9 9 5 -3 13 0 17 6 4 8
3 9 -4 5 -8 -5 -12 0 -12 13 0 12 7 21 15 21 8 0 15 8 15 19 0 32 21 81 33 74
6 -4 8 0 4 10 -3 10 -2 17 2 17 5 0 7 9 4 20 -3 11 -10 20 -15 20 -6 0 -7 11
-4 25 4 14 2 25 -3 25 -12 0 -2 32 13 43 7 5 4 13 -9 24 -16 13 -17 15 -2 10
14 -6 16 -2 11 21 -4 15 -18 39 -31 54 -23 24 -24 29 -12 62 7 19 16 33 20 31
4 -3 9 5 13 18 9 35 7 97 -4 97 -5 0 -7 6 -4 13 2 7 -4 21 -15 31 -19 18 -20
18 -25 -5z"/>
<path d="M8671 4490 c-24 -5 -49 -14 -56 -20 -7 -6 -26 -8 -42 -5 -18 4 -23 3
-15 -2 8 -6 -4 -10 -37 -11 -29 0 -67 -10 -92 -23 -46 -23 -141 -86 -149 -99
-8 -11 -50 -23 -50 -13 0 5 -14 14 -31 20 -29 11 -30 11 -16 -5 9 -9 19 -29
22 -45 4 -15 11 -30 16 -33 20 -12 -3 -191 -27 -206 -15 -10 -63 -57 -88 -86
-16 -18 -17 -22 -4 -17 9 4 19 13 22 21 3 8 10 14 15 14 11 0 171 158 171 168
0 4 53 61 118 127 141 145 214 191 276 174 55 -15 93 -41 127 -87 25 -34 30
-50 31 -104 1 -81 -11 -148 -27 -154 -7 -3 -16 -15 -19 -27 -3 -12 -20 -38
-37 -57 -82 -93 -99 -111 -106 -112 -18 -2 -40 -13 -77 -40 -30 -22 -42 -25
-48 -16 -6 9 -8 7 -6 -7 2 -22 -20 -70 -29 -61 -11 10 -42 -25 -36 -40 5 -12
-13 -19 -39 -15 -5 0 -8 -5 -8 -12 0 -15 -28 -40 -67 -61 -15 -8 -34 -23 -42
-34 -8 -11 -20 -18 -28 -15 -7 3 -13 -2 -13 -11 0 -8 -9 -20 -20 -26 -11 -6
-20 -17 -20 -25 0 -8 -9 -15 -20 -15 -11 0 -20 -4 -20 -10 0 -5 -6 -10 -13
-10 -8 0 -20 -18 -27 -40 -7 -22 -17 -40 -22 -40 -16 0 -23 -5 -55 -41 -18
-20 -33 -47 -33 -59 0 -13 -3 -21 -6 -17 -11 10 -84 -32 -84 -49 0 -8 -4 -12
-10 -9 -5 3 -10 1 -10 -5 0 -7 -13 -29 -30 -50 -16 -21 -30 -41 -30 -44 0 -8
-38 -46 -46 -46 -13 0 -34 -30 -34 -48 0 -13 -6 -19 -17 -18 -11 0 -25 -14
-38 -39 -14 -28 -25 -39 -37 -37 -13 2 -18 -3 -18 -17 0 -12 -6 -21 -15 -21
-8 0 -15 -6 -15 -14 0 -8 -10 -22 -22 -30 -15 -11 -18 -16 -8 -16 12 -1 11 -3
-2 -11 -10 -5 -18 -16 -18 -24 0 -8 -9 -19 -21 -25 -11 -7 -28 -19 -38 -28
-10 -9 -30 -26 -45 -36 -15 -11 -25 -24 -23 -30 5 -14 -37 -47 -64 -49 -14 -1
-26 -14 -37 -39 -9 -20 -23 -39 -32 -42 -8 -3 -21 -9 -28 -12 -8 -4 -10 0 -6
10 3 9 2 16 -4 16 -5 0 -12 -7 -16 -15 -3 -8 -25 -27 -49 -43 -24 -15 -42 -33
-39 -40 2 -6 -3 -12 -12 -12 -18 0 -69 -48 -79 -74 -4 -10 -16 -20 -27 -23
-11 -3 -20 -14 -20 -24 0 -11 -4 -19 -10 -19 -5 0 -10 -9 -10 -20 0 -11 -3
-19 -7 -19 -21 3 -33 -3 -33 -17 0 -9 -9 -18 -20 -21 -11 -3 -20 -14 -20 -24
0 -24 -20 -25 -20 -1 -1 32 -30 -18 -30 -52 0 -23 -3 -27 -12 -18 -18 18 -45
14 -51 -8 -3 -13 -10 -18 -21 -14 -10 4 -18 0 -22 -10 -10 -25 -63 -76 -80
-76 -8 0 -14 -6 -14 -14 0 -26 -20 -28 -29 -4 -10 23 -10 22 -10 -4 -1 -21 -6
-28 -20 -28 -21 0 -35 -16 -36 -40 0 -8 -7 -14 -16 -12 -22 3 -89 -60 -89 -84
0 -15 -2 -16 -9 -5 -7 11 -10 9 -16 -8 -3 -11 -12 -21 -18 -21 -7 0 -24 -21
-37 -47 -14 -27 -28 -49 -32 -51 -5 -2 -8 -14 -8 -27 0 -12 -7 -28 -15 -35 -8
-7 -12 -17 -8 -23 4 -6 0 -8 -11 -4 -13 5 -18 0 -22 -23 -4 -19 -13 -30 -27
-32 -11 -2 -21 -11 -23 -21 -1 -10 -9 -26 -18 -36 -22 -24 -30 -91 -11 -91 9
0 15 -10 15 -25 0 -26 18 -33 37 -14 9 9 23 6 57 -10 56 -26 62 -26 110 -2 20
11 61 21 89 22 46 3 52 1 52 -16 0 -20 27 -23 33 -4 3 6 10 5 18 -2 8 -7 14
-7 14 -1 0 5 -7 12 -14 15 -20 8 -33 77 -16 87 7 4 10 15 7 24 -7 17 40 76 60
76 7 0 17 9 23 20 6 11 17 20 24 20 7 0 25 11 38 24 26 23 102 43 111 28 2 -4
2 -1 1 5 -2 7 1 13 6 13 6 0 22 13 36 30 15 16 30 27 35 25 4 -3 13 11 20 30
7 19 17 35 22 35 4 0 5 -5 1 -12 -4 -7 -3 -8 5 -4 6 4 9 11 6 16 -3 5 3 23 14
40 12 21 21 27 24 18 3 -8 6 -5 6 7 1 16 3 17 10 6 8 -12 11 -9 16 12 4 15 11
27 17 27 5 0 6 5 3 10 -3 5 1 10 9 10 9 0 15 6 14 13 -2 6 3 11 10 9 6 -1 12
2 12 7 0 5 -6 12 -12 14 -8 4 -7 6 4 6 9 1 18 -4 20 -11 3 -7 7 -5 11 6 4 10
3 15 -3 11 -6 -3 -10 -2 -10 3 0 12 63 67 73 64 5 -1 6 2 3 6 -6 10 27 45 35
38 2 -2 11 3 19 12 13 14 12 15 -3 9 -19 -7 -21 5 -8 68 l9 40 1 -50 c1 -45 3
-48 16 -31 7 10 18 16 23 12 5 -3 21 15 36 39 25 39 91 110 71 76 -5 -9 -4
-12 3 -7 7 4 12 11 12 16 0 5 12 22 28 38 15 16 50 54 79 85 28 32 56 57 62
57 6 0 8 7 4 16 -5 13 -11 11 -36 -16 -16 -17 -32 -29 -35 -26 -3 3 2 14 11
24 24 26 21 39 -3 17 -38 -34 -31 -7 10 41 112 132 189 214 202 214 4 0 8 7 8
15 0 14 11 19 26 13 3 -2 11 9 17 24 9 20 16 25 26 19 7 -5 10 -14 6 -21 -6
-9 -9 -9 -16 1 -6 10 -9 7 -9 -10 0 -16 -4 -21 -15 -17 -8 3 -16 0 -16 -7 -1
-7 -3 -19 -4 -27 -1 -8 -3 -21 -4 -29 -1 -11 -4 -11 -16 -1 -13 11 -14 10 -9
-5 6 -14 4 -16 -6 -10 -9 5 -11 4 -6 -3 4 -7 2 -12 -3 -12 -6 0 -11 -4 -11
-10 0 -17 25 -11 38 10 7 11 19 20 27 20 18 0 20 21 3 38 -6 6 -8 15 -4 19 5
5 13 1 19 -8 9 -15 13 -14 32 10 36 44 63 95 58 111 -4 13 -3 13 6 0 10 -13
13 -12 27 5 8 11 34 42 58 70 152 173 256 308 330 427 40 65 76 115 79 111 4
-3 7 -2 7 3 0 12 100 144 155 203 121 133 128 139 182 150 28 6 74 20 102 33
l51 22 0 88 0 88 -30 0 c-18 0 -30 5 -29 13 1 20 14 49 22 48 37 -4 37 -6 37
163 l0 165 -32 -1 c-40 0 -132 8 -173 15 -16 3 -50 1 -74 -3z"/>
<path d="M7925 3837 c-5 -7 -20 -31 -31 -55 l-22 -44 -21 23 c-20 22 -21 22
-21 3 0 -19 -78 -94 -98 -94 -4 0 -22 -14 -39 -31 -18 -16 -38 -29 -45 -27
-14 3 -53 -33 -115 -106 -18 -21 -37 -35 -43 -31 -5 3 -10 -1 -10 -10 0 -8
-10 -19 -22 -24 -13 -5 -38 -23 -55 -40 -18 -17 -40 -31 -48 -31 -9 0 -20 -10
-25 -22 -5 -13 -9 -19 -9 -13 -1 5 -8 -1 -17 -13 -8 -12 -24 -22 -35 -22 -10
0 -19 -7 -19 -15 0 -8 -6 -15 -13 -15 -7 0 -18 -9 -24 -19 -7 -11 -21 -18 -31
-16 -12 2 -22 -6 -30 -24 -7 -16 -29 -36 -52 -47 -22 -10 -43 -27 -46 -37 -3
-9 -14 -22 -25 -27 -10 -6 -19 -17 -19 -26 0 -8 -11 -19 -25 -24 -14 -5 -25
-16 -25 -23 0 -8 -11 -20 -25 -27 -13 -7 -27 -21 -31 -32 -3 -10 -12 -18 -21
-18 -23 0 -102 -53 -103 -69 0 -8 -6 -11 -17 -7 -10 4 -14 4 -10 0 6 -6 -75
-64 -91 -64 -4 0 -14 -9 -22 -20 -10 -14 -17 -17 -27 -8 -10 8 -13 7 -13 -3 0
-17 -44 -69 -58 -69 -6 0 -13 6 -15 13 -3 7 -6 5 -6 -5 -1 -10 6 -18 15 -18 8
0 12 -4 9 -10 -3 -5 -15 -10 -26 -10 -10 0 -19 -6 -19 -14 0 -15 -50 -56 -68
-56 -5 0 -30 -20 -55 -44 -29 -30 -59 -48 -88 -56 -24 -6 -52 -13 -61 -16 -17
-5 -32 -38 -27 -60 5 -27 -3 -44 -21 -44 -14 0 -20 -7 -20 -21 0 -12 -5 -19
-12 -17 -7 3 -24 -1 -37 -8 -14 -7 -28 -11 -33 -8 -4 3 -8 -2 -8 -10 0 -9 -5
-16 -10 -16 -6 0 -20 -9 -32 -20 -19 -18 -20 -20 -4 -26 9 -4 19 -4 22 -1 3 3
30 -3 60 -13 29 -10 85 -22 124 -26 38 -3 70 -10 70 -13 0 -4 -13 -18 -30 -33
-31 -27 -40 -58 -17 -58 19 0 48 38 34 44 -7 3 7 3 31 0 26 -3 42 -1 42 6 0 5
-4 10 -10 10 -5 0 -10 5 -10 11 0 6 9 8 20 4 24 -8 25 -2 5 19 -9 9 -11 17 -5
21 5 3 10 2 10 -3 0 -15 28 -23 36 -10 4 7 3 8 -4 4 -7 -4 -12 -3 -12 2 0 16
40 61 60 67 11 4 18 10 15 15 -7 11 20 31 30 22 5 -4 5 -2 2 5 -4 6 6 22 22
36 17 14 27 28 23 32 -4 4 -2 6 3 4 16 -4 45 12 39 22 -8 13 44 61 57 53 7 -4
10 -1 7 6 -4 14 162 185 194 199 3 1 36 30 71 64 81 77 97 90 97 80 1 -4 8 1
18 13 9 11 25 25 34 30 18 10 181 161 321 297 44 42 84 77 89 77 4 0 8 7 8 16
0 8 5 12 10 9 6 -3 10 -2 10 3 0 14 62 77 72 74 5 -1 7 1 4 6 -3 5 2 19 11 31
12 18 17 20 24 10 7 -11 9 -10 9 5 0 18 23 45 155 181 78 80 148 163 157 187
4 11 12 16 18 13 5 -3 10 -2 10 4 0 5 3 18 6 28 5 15 4 15 -5 3 -9 -12 -11
-11 -11 8 0 24 -10 28 -25 9z"/>
<path d="M8804 3356 c-7 -7 -14 -22 -16 -32 -2 -10 -9 -18 -15 -17 -7 2 -24
-23 -39 -55 -14 -31 -33 -61 -40 -65 -8 -4 -14 -15 -14 -22 0 -8 -4 -15 -10
-15 -5 0 -20 -21 -32 -47 -12 -27 -26 -49 -30 -51 -4 -2 -8 -13 -8 -23 0 -11
-4 -17 -10 -14 -5 3 -10 2 -10 -3 0 -5 -11 -21 -25 -36 -14 -15 -25 -31 -25
-37 0 -5 -6 -9 -12 -9 -7 0 -21 -14 -30 -30 -9 -17 -24 -30 -33 -30 -9 0 -13
-4 -10 -10 3 -5 1 -10 -4 -10 -6 0 -11 -7 -11 -15 0 -8 -7 -15 -15 -15 -8 0
-15 -7 -15 -15 0 -21 -18 -19 -23 3 -2 9 -7 -2 -12 -25 -4 -23 -10 -42 -14
-41 -20 2 -31 -4 -31 -17 0 -8 -9 -23 -20 -32 -11 -10 -20 -23 -20 -30 0 -7
-4 -13 -10 -13 -5 0 -10 -6 -10 -13 0 -8 -9 -22 -19 -31 -11 -10 -21 -27 -23
-37 -2 -11 -7 -19 -13 -19 -5 1 -13 -9 -16 -22 -3 -13 -11 -22 -17 -21 -6 2
-17 -7 -23 -18 -9 -18 -13 -19 -20 -8 -6 9 -7 4 -3 -15 4 -18 3 -27 -3 -23 -5
3 -22 -17 -38 -46 -15 -29 -30 -54 -34 -57 -3 -3 -15 -22 -25 -42 -11 -21 -23
-38 -28 -38 -4 0 -8 -9 -8 -21 0 -15 -5 -19 -15 -15 -9 3 -15 0 -15 -9 0 -9
-6 -12 -15 -9 -10 4 -18 -3 -24 -19 -6 -14 -26 -33 -45 -42 -20 -10 -36 -21
-36 -27 0 -5 -9 -18 -20 -30 -11 -12 -20 -28 -20 -35 0 -7 -3 -12 -7 -11 -14
4 -73 -36 -73 -50 0 -7 -4 -10 -10 -7 -5 3 -10 2 -10 -3 0 -15 -41 -53 -51
-47 -5 4 -9 -6 -9 -22 0 -22 -2 -25 -10 -13 -7 11 -10 11 -10 2 0 -7 -4 -11
-9 -7 -5 3 -16 -2 -24 -10 -12 -11 -17 -12 -20 -2 -3 7 -6 5 -6 -5 -1 -10 -5
-18 -11 -18 -5 0 -10 -9 -10 -20 0 -11 -4 -20 -10 -20 -5 0 -10 -7 -10 -16 0
-8 -4 -13 -8 -10 -5 3 -15 -6 -22 -20 -8 -13 -19 -23 -26 -20 -8 3 -11 0 -8
-8 3 -7 -2 -20 -10 -29 -9 -9 -16 -20 -16 -26 0 -6 -7 -11 -15 -11 -8 0 -15
-7 -15 -15 0 -8 -8 -15 -18 -15 -30 0 -65 -45 -60 -74 4 -18 1 -26 -8 -26 -8
0 -14 5 -14 10 0 6 -9 1 -20 -10 -11 -11 -20 -24 -20 -30 0 -5 -8 -10 -18 -10
-10 0 -29 -11 -42 -25 -13 -14 -29 -25 -37 -25 -7 0 -13 -7 -13 -15 0 -8 -4
-15 -10 -15 -5 0 -10 -6 -10 -13 0 -8 -12 -20 -27 -28 -16 -7 -42 -28 -59 -46
-17 -18 -34 -30 -38 -26 -3 3 -6 -6 -6 -21 0 -16 -4 -25 -10 -21 -5 3 -10 -1
-10 -9 0 -9 -9 -16 -20 -16 -14 0 -22 -11 -29 -38 -6 -20 -11 -44 -11 -53 0
-8 -9 -25 -20 -37 -11 -12 -20 -31 -20 -43 0 -24 -39 -80 -41 -58 -1 8 -4 1
-8 -16 -6 -30 -29 -40 -43 -20 -4 5 -8 -8 -8 -29 0 -33 -12 -44 -16 -15 -1 5
-2 14 -3 19 -2 17 -19 11 -26 -10 -4 -11 -18 -34 -32 -50 l-25 -30 27 0 c24 0
26 -3 24 -34 -2 -19 0 -38 4 -42 4 -4 7 -14 7 -23 0 -13 -2 -13 -9 -2 -6 10
-10 10 -16 1 -4 -6 -2 -17 4 -23 6 -6 11 -8 11 -3 0 4 6 1 14 -7 8 -8 14 -22
13 -32 -2 -15 8 -21 41 -28 28 -5 48 -5 55 2 8 6 18 6 27 1 9 -6 22 -2 38 11
14 10 38 19 53 19 16 0 29 4 29 9 0 5 13 14 29 21 22 9 33 23 42 55 7 24 17
41 21 39 4 -3 8 -1 8 4 0 5 29 39 65 76 55 56 69 65 90 60 18 -4 27 -1 31 10
4 11 13 14 25 11 14 -5 20 0 25 20 3 14 9 24 11 21 8 -8 33 21 33 38 0 9 4 16
9 16 5 0 12 10 15 23 7 20 8 21 15 3 6 -15 9 -11 19 21 7 22 12 51 13 64 0 22
1 23 9 4 7 -18 9 -18 15 -3 4 9 3 23 -1 30 -5 10 -4 10 6 1 10 -9 16 -8 27 3
8 8 13 20 11 26 -3 7 8 23 23 36 15 12 38 38 49 57 12 19 28 35 36 35 8 0 14
10 14 25 0 19 4 23 17 18 10 -4 14 -2 10 4 -8 13 37 56 48 46 4 -5 5 -2 1 5
-5 9 1 24 17 40 28 30 97 130 97 141 0 4 11 18 25 31 14 13 25 28 25 32 0 5
18 31 40 57 22 26 40 53 40 59 0 7 4 12 8 12 5 0 26 25 47 55 20 30 41 55 46
55 5 0 9 5 9 11 0 11 85 120 128 165 6 7 12 16 12 21 0 11 69 110 102 145 15
17 28 34 28 39 0 13 41 71 62 86 22 17 58 76 58 97 0 26 -17 18 -23 -11 -4
-16 -19 -42 -34 -59 -50 -56 -228 -284 -232 -297 -2 -7 -7 -14 -10 -17 -8 -6
-73 -92 -124 -162 -59 -82 -115 -161 -135 -187 -9 -13 -23 -31 -31 -39 -8 -8
-22 -27 -30 -42 -25 -45 -88 -132 -118 -165 -15 -16 -42 -46 -60 -67 -29 -35
-33 -37 -47 -22 -9 8 -16 21 -16 29 0 15 -24 26 -36 17 -5 -4 -1 1 9 11 11 9
16 17 13 17 -8 0 9 34 29 58 8 9 55 67 105 127 50 61 105 128 123 150 18 21
48 55 67 75 126 130 220 244 220 267 0 5 16 24 35 43 19 19 35 40 35 47 0 7 4
13 8 13 4 0 24 21 45 48 20 26 46 59 59 73 13 15 34 41 48 59 101 133 124 146
114 62 l-6 -47 24 25 c49 53 83 70 142 70 69 0 118 -28 144 -81 15 -33 20 -36
47 -32 26 4 63 -7 118 -35 4 -2 7 126 7 284 0 324 1 318 -85 552 -26 71 -39
83 -61 58z"/>
<path d="M8637 2247 c-9 -12 -17 -26 -17 -33 0 -6 -7 -17 -15 -24 -8 -7 -38
-48 -67 -91 -29 -43 -59 -79 -66 -79 -7 0 -20 -15 -28 -32 -21 -47 -36 -71
-56 -86 -10 -7 -18 -20 -18 -29 0 -8 -12 -24 -26 -35 -14 -12 -30 -31 -35 -44
-4 -13 -12 -23 -16 -22 -19 4 -41 -15 -36 -29 4 -11 2 -14 -6 -9 -7 5 -26 -7
-47 -28 -20 -20 -42 -36 -50 -36 -8 0 -14 -8 -14 -18 0 -9 -12 -26 -26 -37
-15 -11 -29 -22 -33 -25 -14 -12 -51 -70 -51 -82 0 -27 -46 -128 -58 -128 -7
0 -12 -8 -11 -17 4 -24 -20 -93 -32 -93 -5 0 -9 -7 -9 -15 0 -8 -5 -15 -11
-15 -6 0 -30 -16 -54 -35 -30 -25 -45 -32 -48 -23 -3 7 -6 3 -6 -9 -1 -13 -4
-22 -8 -21 -28 5 -72 -34 -73 -65 0 -10 -7 -20 -15 -23 -8 -4 -15 -14 -15 -25
0 -10 -9 -23 -19 -29 -16 -8 -20 -6 -24 8 -3 9 -5 2 -6 -16 0 -18 -5 -31 -10
-27 -5 3 -12 -4 -16 -15 -4 -11 -10 -18 -15 -15 -4 3 -15 -5 -23 -18 -8 -12
-29 -37 -46 -54 -19 -21 -33 -47 -37 -73 -5 -33 -13 -43 -40 -56 -19 -9 -34
-23 -34 -30 0 -8 -9 -22 -20 -31 -11 -10 -20 -26 -20 -36 0 -14 -5 -17 -20
-12 -13 4 -20 2 -20 -7 0 -8 -9 -21 -20 -31 -11 -9 -20 -24 -20 -32 0 -8 -4
-15 -10 -15 -5 0 -10 -10 -10 -23 0 -13 -7 -32 -15 -43 -18 -24 -19 -34 -2
-34 6 0 19 -13 28 -29 15 -26 15 -29 -2 -39 -9 -6 -25 -25 -35 -42 -10 -16
-24 -30 -31 -30 -7 0 -18 -9 -25 -20 -7 -11 -18 -20 -25 -20 -6 0 -13 -15 -15
-32 -2 -18 -6 -32 -10 -30 -5 1 -17 -7 -28 -18 -12 -12 -25 -18 -31 -14 -6 3
-10 -2 -9 -12 1 -11 1 -30 1 -44 l-2 -25 -10 23 c-5 13 -13 20 -19 17 -6 -4
-8 -11 -5 -16 3 -5 -2 -6 -11 -2 -14 5 -16 2 -10 -23 5 -21 4 -25 -4 -14 -8
13 -11 12 -16 -5 -5 -19 -66 -55 -92 -55 -7 0 -12 -4 -12 -9 0 -5 59 -10 134
-10 120 -1 135 1 139 16 4 17 5 17 6 0 1 -16 4 -15 24 7 26 28 67 44 67 25 0
-7 -7 -21 -17 -31 -15 -17 -12 -18 97 -18 99 0 111 2 100 15 -9 11 -9 15 -1
15 6 0 14 -6 17 -13 2 -7 21 -14 42 -15 33 -1 34 0 13 9 -13 5 -21 12 -18 15
3 3 19 -2 36 -10 26 -14 112 -16 721 -16 l690 0 0 720 0 720 -49 142 c-42 125
-74 208 -126 324 -25 58 -73 211 -87 275 -16 79 -28 95 -51 66z"/>
<path d="M5878 2236 c-10 -7 -18 -21 -18 -30 0 -9 -5 -16 -11 -16 -8 0 -9 -12
-4 -37 4 -21 8 -39 8 -39 1 -1 12 -5 24 -8 18 -6 25 -2 35 18 10 24 15 26 57
20 43 -5 47 -4 59 22 8 19 9 31 2 38 -7 7 -10 5 -10 -4 0 -8 -7 -5 -19 8 -10
12 -26 22 -35 22 -9 0 -16 4 -16 8 0 13 -54 12 -72 -2z"/>
<path d="M4651 1321 c-7 -5 -21 -7 -30 -4 -10 2 -23 -3 -30 -11 -7 -9 -30 -20
-50 -26 -38 -10 -71 -53 -71 -91 0 -11 -7 -30 -15 -42 -8 -13 -16 -58 -19
-105 -3 -46 -8 -87 -11 -92 -3 -4 -7 -32 -9 -62 l-4 -53 21 58 c12 31 26 57
32 57 10 0 63 72 95 128 8 15 19 30 24 33 5 4 6 11 3 15 -6 10 19 49 31 49 4
0 5 7 4 16 -2 9 4 22 13 29 8 7 15 19 15 27 0 9 6 13 15 9 11 -4 15 1 15 19 0
13 5 27 10 30 13 8 3 25 -13 25 -7 0 -18 -4 -26 -9z"/>
<path d="M4481 516 c-11 -17 -26 -40 -33 -51 -7 -11 -20 -31 -29 -45 -60 -92
-159 -273 -159 -292 -1 -21 -60 -113 -60 -92 0 10 -20 -17 -20 -28 0 -5 37 -8
83 -8 l83 0 11 43 c7 24 41 87 77 141 36 53 68 106 71 116 4 13 12 17 23 13
15 -6 15 -4 4 9 -9 12 -10 22 -3 35 18 34 70 177 66 181 -2 3 -24 6 -49 7 -41
3 -47 0 -65 -29z"/>
<path d="M4217 401 c-12 -8 -25 -19 -28 -24 -3 -5 -8 -7 -10 -6 -7 6 -43 -25
-77 -66 -35 -41 -136 -151 -223 -240 -27 -28 -49 -54 -49 -58 0 -4 38 -7 85
-7 50 0 85 4 85 10 0 6 6 9 13 8 6 -2 11 3 9 11 -2 9 3 11 13 7 9 -3 13 -2 10
3 -3 6 2 14 11 19 18 10 22 17 92 152 29 56 51 104 49 107 -7 7 -84 -44 -90
-59 -3 -7 -6 -8 -6 -2 -1 11 22 36 79 84 34 30 80 40 80 19 0 -17 -48 -109
-89 -169 -33 -49 -101 -173 -101 -185 0 -3 7 -5 15 -5 8 0 25 21 38 47 13 27
39 77 59 113 76 138 118 221 118 234 0 20 -57 25 -83 7z"/>
</g>
</svg>
